#!OML:ASF E:/inclinewalkrobotboard/Project1/Captureday1/Session1/subject1.ASF
:FULLY-SPECIFIED
:DEGREES
51
root 0 0 0 1.7453500979234853 -10.734553626282784 0.7846016640829987
lowerback -0.020128224168617148 -1.5406469425880867 -2.568700696367512
upperback -0.6699462297839591 -2.0194342411287365 1.8404711666642477
thorax -0.4937137588456717 -0.987017292795492 3.293196834708179
lowerneck -24.378109329401603 -1.61331072346781 -7.615916182378745
upperneck 28.564732063462333 0.35517765503614496 1.8609994301332689
head 13.708539362891782 -0.6121458088639544 2.2083755855088247
rclavicle -1.1142600294126638E-14 1.2290972893355794E-15
rhumerus -30.903535786301763 0.161556858720159 -81.88116288626809
rradius 31.677980522099688
rwrist 18.295884578823802
rhand -18.59765527979135 9.214316427550697
rfingers 7.12501999999994
rthumb 7.693837210794344 -20.671874493880438
lclavicle -2.369321610219203E-15 1.3432270611330647E-16
lhumerus -20.1037566372195 -2.099516540759984 90.78092775573492
lradius 64.1903945837996
lwrist 1.4689064871614321
lhand -28.736619309082183 20.476051182952936
lfingers 7.125020000000028
lthumb -2.088115729588215 50.44650335168688
rfemur 13.384488570158068 6.552329676472041 33.20295424214745
rtibia 36.448406151531906
rfoot -13.367153615519522 -2.5125558465651276
rtoes -7.019040110959456
lfemur -29.523217587807547 -5.205491461716383 -9.995581243302436
ltibia 20.081096337189557
lfoot -3.5734579080260405 3.1493600905978028
ltoes -2.072260447240126
52
root 0 0 0 1.734570951960011 -10.777611702374841 0.7956228743590775
lowerback -0.04721294158623479 -1.5505859847681474 -2.577897459037782
upperback -0.6890064486773892 -2.0323987987205494 1.8158787049647322
thorax -0.4956361274590585 -0.9921443104578324 3.2718098956611454
lowerneck -24.441397972892737 -1.6203476860966797 -7.614404367222493
upperneck 28.620169040380055 0.36008243822576924 1.8304629832774952
head 13.743301259056175 -0.6154715850319585 2.197460753788927
rclavicle -1.1422711238914603E-14 1.162858306866615E-15
rhumerus -31.00766839517679 0.114881512190121 -81.69325434889438
rradius 31.53768942471581
rwrist 18.342895788873324
rhand -18.57470271303441 9.228656476814152
rfingers 7.125019999999938
rthumb 7.715156479275436 -20.650422932028075
lclavicle -3.3456175724661967E-15 4.0470143195891586E-16
lhumerus -19.629658078593607 -1.42090828105274 90.57412129049283
lradius 64.00487980784082
lwrist 1.3591127250732096
lhand -28.78462609674627 20.49480323223821
lfingers 7.125020000000028
lthumb -2.131947295890803 50.45662503181753
rfemur 8.240109857201984 4.511528656788313 28.602671948313525
rtibia 47.953324822753956
rfoot -2.9980426334689803 0.22305002022146203
rtoes -3.4911476644133828
lfemur -27.902362138743236 -4.681346597768461 -11.968855442278507
ltibia 23.675431013307765
lfoot -2.33767941039841 0.8701605882632659
ltoes 0.6679085008534624
53
root 0 0 0 1.7329776173860578 -10.843536297557975 0.8210057265600585
lowerback -0.1042976760301173 -1.5725070922577282 -2.5998269176541293
upperback -0.7042519704459579 -2.061881940075793 1.7775359836201825
thorax -0.47621944996155596 -1.0057032423587615 3.243556182078943
lowerneck -24.574069832722042 -1.6368021269953024 -7.632788615832938
upperneck 28.613663891365245 0.35845251451712545 1.8181759049111483
head 13.770429043143956 -0.6173240148235043 2.192553753470179
rclavicle -1.1237553479601857E-14 8.760701750601052E-16
rhumerus -31.215258754331064 -0.4750466062792036 -81.51205656505228
rradius 31.360884139659365
rwrist 18.525023566202876
rhand -18.425247789527347 9.174600223188543
rfingers 7.125019999999936
rthumb 7.857810050648102 -20.689339126866564
lclavicle -3.329793188820981E-15 5.181561801912228E-16
lhumerus -19.17117880037361 -0.8582816180612456 90.43459354148715
lradius 63.86087485502948
lwrist 1.1975753741066595
lhand -28.887091537104304 20.458004003359218
lfingers 7.125020000000027
lthumb -2.229512301145377 50.40871487974679
rfemur -1.7040460988708217 3.119337078884336 24.927506050914392
rtibia 58.9716723771452
rfoot 7.238549520890004 0.6666139067119157
rtoes 5.381006076659626
lfemur -23.718530635906163 -3.6992475709460657 -16.099152521668913
ltibia 30.699764477631902
lfoot -1.4228818274185375 -3.2648966089411866
ltoes 5.205060746410021
54
root 0 0 0 1.7605575369272695 -10.899409085813298 0.8456892479214284
lowerback -0.17338415806623897 -1.6055904673407424 -2.630807174335783
upperback -0.6795055659090726 -2.1060542933290427 1.7327916670866352
thorax -0.410567855477752 -1.0287475234002017 3.2136380252136596
lowerneck -24.63663101502388 -1.6421114451241965 -7.695424095220982
upperneck 28.664576401894024 0.35722677574870865 1.8416602112284293
head 13.794249114084666 -0.6120438126424842 2.2058701425002853
rclavicle -9.421224512887715E-15 8.300607191049978E-16
rhumerus -31.64681118307861 -1.8994021396481875 -81.27297255684523
rradius 31.05546620945817
rwrist 18.935136960271805
rhand -18.102196034322844 9.060487863545545
rfingers 7.125019999999934
rthumb 8.168703049875463 -20.78394294407381
lclavicle -2.970139724687833E-15 5.641205354858509E-16
lhumerus -19.14489222974176 -1.1348762447663674 90.40108097521508
lradius 63.96741709274555
lwrist 1.2813495178718584
lhand -28.855105692828772 20.485446030201715
lfingers 7.125020000000025
lthumb -2.2007886809239894 50.44213757053992
rfemur -8.470320410905577 2.027743906379131 23.586674897375698
rtibia 65.84048850434061
rfoot 7.386028385604472 -2.2747016760325955
rtoes 11.42444913684305
lfemur -18.754392098408086 -2.9919186553291803 -20.38205203290441
ltibia 32.563898607749564
lfoot -3.014875835954866 -4.279787195034028
ltoes 9.071187505036187
